<svg id="Layer_1" data-name="Layer 1" xmlns="http://www.w3.org/2000/svg" viewBox="0 0 371.61 218.34"><path d="M141.26,237.81c-.12,0-.29.16-.36.12a1.9,1.9,0,0,1-.26-.37,1.34,1.34,0,0,1,.4,0C141.13,237.6,141.18,237.73,141.26,237.81Z" transform="translate(-6.98 -19.59)"/><path d="M333.27,80.56a4.5,4.5,0,0,0-.38.3c-12.77,13-25.36,26.1-37.22,39.92a184.94,184.94,0,0,0-26.08,40.08,6.31,6.31,0,0,0-.39.93,2.28,2.28,0,0,0,2,3.16,8.3,8.3,0,0,0,3.4-.68c1.7-.74,3.26-1.8,4.92-2.62a137.92,137.92,0,0,0,23.19-14.11c17.65-13.64,33.67-29.09,49.64-44.59.59-.57,1.11-1.21,1.61-1.75ZM152.11,171.75c-.32-1.22-.55-2.1-.79-3-1.35-5.1-2.48-10.29-5.48-14.78-4.1-6.15-12.2-6.39-16.62-.43a56,56,0,0,0-3.27,5.76c-2.94,5.12-5.76,10.33-8.91,15.34-3,4.71-7.43,7.61-12.73,9.26l-5.79,1.8c.41,3.66.81,7.15,1.2,10.62,5.63-.33,17.67-4.24,23.72-11.5a88.66,88.66,0,0,0,11.1-17c.75-1.48,1.66-2.88,2.49-4.31l.67.1a20.29,20.29,0,0,1,1.16,2.62c.77,2.75,1.36,5.55,2.18,8.28a96.35,96.35,0,0,0,3.6,10.72c1.54,3.51,5.19,4.53,8.45,2.56a21.46,21.46,0,0,0,4.07-3.74c1.08-1.14,2-2.45,3.07-3.76,1.09,2.35,1.92,4.48,3,6.46,3.74,6.71,7.8,7,12.6,1,.71-.89,1.6-1.65,2.66-2.73.31,1.07.46,1.6.63,2.13,1.4,4.25,5.92,5.89,9.47,3.27,3.27-2.41,6.27-5.2,9.55-7.61a113,113,0,0,1,12-8.17c4.89-2.71,6.07-2.09,8.61,2.82,2.88,5.6,4.81,6.71,10.9,5.54,8.48-1.63,16.91-3.53,25.38-5.24,1.63-.33,2.11-1.08,1.76-2.66-.48-2.16-.82-4.34-1.22-6.52-.35-1.84-1.07-2.58-3.24-2-7,1.75-14.06,3.2-21.09,4.8-1.71.39-3.26.73-3.41-1.8a2.18,2.18,0,0,0-.62-1.11c-5.09-6.12-9-7.58-15.68-6.13-6.81,1.47-12.49,5.14-17.86,9.37-1.84,1.45-3.62,3-5.5,4.49-2.49-2.39-4.8-4.69-8.44-4.87s-6.27,1.52-8.89,3.71a15.79,15.79,0,0,0-1.93-2.26,54.86,54.86,0,0,0-6.77-5.05,5.29,5.29,0,0,0-6.37.9C154.7,169.58,153.55,170.53,152.11,171.75Zm4-80.34h-119v12.44h119Zm0,29.67h-119v12.44h119ZM356.64,98.75c3.13-3.47,6.39-6.75,9.27-10.33,3.44-4.29,6.75-8.71,9.75-13.31,2.13-3.28,3.56-7.2,2.66-11.13-.78-3.41-2.67-6.33-7-7.5-4.51-1-8.69.13-12.73,2.72-8.3,5.31-15.51,11.92-22.59,18.7-.06.06-.05.21,0-.16Zm-257.92,52H37.08v12.43H98.72Zm238.52-29.25a11,11,0,0,0,2,2.26,2.38,2.38,0,0,0,2.1-.15,22.66,22.66,0,0,0,3.53-2.88c6.6-6.46,13.22-12.9,19.73-19.46,4.4-4.43,8.65-9,12.91-13.59a2.58,2.58,0,0,0,.75-2c-.71-2.38-2.88-2.93-4.71-1.34-.43.37-.85.75-1.25,1.14q-14.51,14.3-29,28.61c-1.72,1.7-3.29,3.56-4.88,5.38A15.55,15.55,0,0,0,337.24,121.51Z" transform="translate(-6.98 -19.59)"/><path d="M289.22,19.6c2,0,5.5.57,7,1.89,3.2,2.73,5.78,6.2,5.81,10.83.12,20.72,0,37.21.05,57.66,0,5.71.18,9.17-3.84,13.17s-7.09,7.06-7.84,7.5V74.45H18.94V201.29H290.09c0-.78.11-1.54.12-2.3.12-10.43.25-20.87.31-31.3a2.77,2.77,0,0,1,1.56-2.83c3.23-1.79,6.58-3.9,9.85-5.83a1.92,1.92,0,0,1,.06.83c.08,14.23.24,27.16.14,41.16,0,7.75-6.42,12.54-10.87,12.54-.52,0-121.27.2-182.51.15-28.13,0-56.26-.21-84.39-.35-2.79,0-5.58-.15-8.35-.41-4.09-.38-8.25-5-8.67-9.43C7,200.33,7,92.27,7,38.09c.39-.66-2.59-18.48,11.63-18.48C27.84,19.61,224.47,19.57,289.22,19.6Z" transform="translate(-6.98 -19.59)"/><path d="M173.15,91.51v57.58H234V91.51Zm33.06,44.43v5.5h-5.78v-5.12a25.37,25.37,0,0,1-10-2.32l1.77-6.31a22.32,22.32,0,0,0,9.78,2.37c3.36,0,5.66-1.18,5.66-3.34s-1.89-3.34-6.25-4.69c-6.3-1.94-10.6-4.63-10.6-9.86,0-4.75,3.65-8.47,10-9.6V97.45h5.77v4.74A22.8,22.8,0,0,1,215,104l-1.7,6.09a21.15,21.15,0,0,0-8.49-1.83c-3.83,0-5.07,1.51-5.07,3,0,1.78,2.07,2.91,7.07,4.64,7,2.26,9.84,5.22,9.84,10.08S213,134.86,206.21,135.94Z" transform="translate(-6.98 -19.59)"/></svg>